<svg width="512" height="512" viewBox="0 0 512 512" fill="none" xmlns="http://www.w3.org/2000/svg">
<rect width="512" height="512" rx="90" fill="#3a506b"/>
<g transform="translate(0, 20)">
<path d="M128 256C128 238.327 142.327 224 160 224H352C369.673 224 384 238.327 384 256V288C384 305.673 369.673 320 352 320H160C142.327 320 128 305.673 128 288V256Z" fill="#fdfaf0" stroke="#2e2e2e" stroke-width="12"/>
<path d="M104 260C104 200.317 172.317 128 256 128C339.683 128 408 200.317 408 260" stroke="#fdfaf0" stroke-width="24" stroke-linecap="round"/>
<rect x="92" y="244" width="328" height="32" fill="#2e2e2e"/>
<path d="M224 352C224 334.327 238.327 320 256 320C273.673 320 288 334.327 288 352V384C288 401.673 273.673 416 256 416C238.327 416 224 401.673 224 384V352Z" fill="#2e2e2e"/>
</g>
</svg>
